<svg width="126" height="26" viewBox="0 0 126 26" fill="none" xmlns="http://www.w3.org/2000/svg">
<path d="M10.0494 0.399902H0V25.1059H10.0494C16.9764 25.1059 22.2523 19.7411 22.2523 12.7529C22.2523 5.76462 16.9764 0.399902 10.0494 0.399902ZM10.0494 19.6705H5.74253V5.83521H10.0494C13.9974 5.83521 16.7251 8.51757 16.7251 12.7529C16.7251 16.9882 13.9974 19.6705 10.0494 19.6705Z" fill="#00BB29"/>
<path d="M33.9154 25.6C39.1914 25.6 43.4265 21.5411 43.4265 16.2823C43.4265 11.0235 39.1914 6.96463 33.9154 6.96463C28.6395 6.96463 24.4044 11.0235 24.4044 16.2823C24.4044 21.5411 28.6395 25.6 33.9154 25.6ZM33.9154 20.447C31.5825 20.447 29.788 18.7882 29.788 16.2823C29.788 13.7764 31.5825 12.1176 33.9154 12.1176C36.2483 12.1176 38.0429 13.7764 38.0429 16.2823C38.0429 18.7882 36.2483 20.447 33.9154 20.447Z" fill="#00BB29"/>
<path d="M66.5705 6.96463C64.0222 6.96463 62.3713 7.88228 61.3663 9.29405C60.3614 7.81169 58.7822 6.96463 56.6646 6.96463C54.2599 6.96463 52.6807 7.88228 51.8552 9.08228V7.45875H46.4716V25.1059H51.8552V15.1529C51.8552 13.0705 52.8602 11.8352 54.6547 11.8352C56.3775 11.8352 57.2389 12.9646 57.2389 14.7294V25.1059H62.6225V15.1529C62.6225 13.0705 63.6274 11.8352 65.422 11.8352C67.1447 11.8352 68.0061 12.9646 68.0061 14.7294V25.1059H73.3897V14.2705C73.3897 9.85875 70.6979 6.96463 66.5705 6.96463Z" fill="#00BB29"/>
<path d="M94.2979 25.1059L87.5863 16.2823L94.1185 7.45875H87.8376L82.4539 15.1882V0.399902H77.0703V25.1059H82.4539V17.3058L88.1965 25.1059H94.2979Z" fill="#FF0000"/>
<path d="M100 18.4H112.742C112.885 17.7294 112.957 17.0235 112.957 16.2823C112.957 10.9529 109.081 6.96463 103.841 6.96463C98.1699 6.96463 94.2937 11.0235 94.2937 16.2823C94.2937 21.5411 98.0981 25.6 104.235 25.6C107.645 25.6 110.301 24.3647 112.06 21.9647L107.753 19.5294C107.035 20.3058 105.779 20.8705 104.307 20.8705C102.333 20.8705 100.682 20.2353 100 18.4ZM99.8927 14.447C100.395 12.647 101.759 11.6588 103.805 11.6588C105.42 11.6588 107.035 12.3999 107.609 14.447H99.8927Z" fill="#FF0000"/>
<path d="M126.001 12.5411V7.45875H122.304V2.51755L116.92 4.1058V7.45875H114.049V12.5411H116.92V18.7882C116.92 23.7294 118.966 25.8117 126.001 25.1059V20.3058C123.632 20.447 122.304 20.3058 122.304 18.7882V12.5411H126.001Z" fill="#FF0000"/>
</svg>
